<?xml version="1.0" standalone="no"?>
<!DOCTYPE svg PUBLIC "-//W3C//DTD SVG 20010904//EN"
 "http://www.w3.org/TR/2001/REC-SVG-20010904/DTD/svg10.dtd">
<svg version="1.0" xmlns="http://www.w3.org/2000/svg"
 width="844.000000pt" height="844.000000pt" viewBox="0 0 844.000000 844.000000"
 preserveAspectRatio="xMidYMid meet">
<metadata>
Created by potrace 1.11, written by Peter Selinger 2001-2013
</metadata>
<g transform="translate(0.000000,844.000000) scale(0.100000,-0.100000)"
fill="#000000" stroke="none">
<path d="M5545 7689 c3 -74 7 -177 10 -229 3 -52 7 -147 10 -210 3 -63 8 -155
10 -205 3 -49 5 -116 6 -148 0 -32 3 -57 5 -54 6 5 37 114 84 292 16 61 61
225 99 365 49 181 66 258 59 267 -6 7 -13 11 -17 9 -4 -3 -25 -1 -47 4 -55 12
-104 21 -139 25 -16 1 -43 6 -58 10 l-28 7 6 -133z"/>
<path d="M7664 6624 c-60 -64 -122 -131 -139 -148 -139 -150 -257 -276 -290
-312 -97 -102 -127 -135 -124 -138 2 -2 148 78 324 176 326 183 337 189 444
246 33 18 61 36 61 40 0 5 -38 63 -84 130 l-83 122 -109 -116z"/>
<path d="M4769 6173 c-1 -16 -2 -39 -4 -53 -1 -14 -6 -63 -9 -110 -4 -47 -9
-105 -11 -130 -2 -25 -7 -79 -10 -120 -4 -41 -8 -95 -10 -120 -2 -25 -6 -76
-10 -115 -3 -38 -7 -92 -10 -120 -2 -27 -7 -88 -11 -135 -4 -47 -8 -96 -10
-110 -1 -14 -3 -38 -3 -55 -1 -28 -8 -33 -99 -75 -53 -24 -157 -72 -231 -107
-73 -35 -135 -63 -137 -63 -2 0 -54 -24 -116 -54 -62 -29 -149 -70 -193 -91
-44 -20 -115 -54 -159 -74 l-79 -37 214 -89 c118 -48 237 -98 264 -110 28 -12
86 -37 130 -55 44 -18 98 -40 120 -50 22 -10 76 -32 120 -50 44 -18 84 -36 88
-40 5 -4 -49 -48 -120 -98 -70 -50 -133 -94 -138 -99 -13 -10 -6 -5 -663 -464
-306 -214 -561 -392 -567 -397 -5 -4 -84 -59 -175 -122 -91 -63 -185 -129
-210 -147 -25 -17 -81 -57 -125 -87 -44 -30 -114 -79 -156 -108 -42 -29 -112
-77 -155 -107 -43 -30 -113 -78 -154 -107 -41 -29 -111 -78 -155 -108 -44 -30
-145 -100 -225 -155 -80 -55 -194 -134 -255 -175 -60 -41 -143 -97 -183 -125
-40 -28 -75 -51 -78 -51 -3 0 -12 -6 -19 -14 -8 -7 -53 -40 -102 -72 -48 -32
-90 -61 -93 -64 -3 -3 -13 -9 -22 -15 -9 -5 -176 -116 -370 -246 -380 -254
-490 -326 -581 -380 -39 -23 -57 -39 -54 -50 7 -26 288 -399 300 -399 7 1 84
58 173 128 88 70 176 139 195 154 19 14 79 61 134 105 55 43 118 91 140 107
22 17 42 33 45 36 3 4 35 29 72 57 37 29 73 56 80 62 7 6 40 32 74 59 33 26
76 59 95 74 19 15 79 62 134 105 55 43 125 97 155 121 30 23 82 63 114 89 33
25 64 49 70 54 38 31 141 111 271 212 83 64 155 120 160 125 6 4 93 73 195
152 102 80 192 150 200 157 8 7 65 51 125 98 61 47 117 91 125 98 8 7 33 26
55 42 22 16 42 32 45 36 3 3 37 29 75 59 39 29 88 67 110 85 22 17 159 125
305 239 146 114 272 212 280 219 8 7 56 43 105 82 50 38 92 73 93 77 2 4 10 8
17 8 7 0 15 4 17 8 2 5 109 91 238 192 129 101 285 222 345 270 171 134 185
144 186 129 1 -25 7 -72 18 -154 6 -44 13 -102 16 -130 3 -27 8 -66 10 -85 3
-19 7 -51 10 -70 2 -19 7 -60 10 -90 3 -30 8 -68 10 -85 11 -81 16 -121 31
-255 4 -30 8 -64 10 -75 1 -11 3 -29 3 -39 1 -20 8 -14 76 66 119 140 331 385
339 393 6 6 33 37 61 70 51 62 79 95 105 123 16 17 110 126 146 170 20 23 30
24 134 1 25 -5 56 -12 70 -14 125 -23 403 -78 435 -85 22 -6 56 -12 75 -15 19
-3 89 -16 155 -30 120 -24 167 -33 217 -40 25 -4 23 2 -54 128 -45 73 -90 148
-101 167 -11 19 -28 46 -38 59 -11 13 -19 30 -19 37 0 8 -4 14 -10 14 -5 0
-10 5 -10 10 0 6 -15 34 -34 63 -18 28 -93 150 -165 270 l-132 218 31 56 c18
31 46 81 62 112 17 31 49 90 73 131 23 41 55 100 72 130 16 30 50 91 75 135
46 82 77 138 143 260 21 39 49 87 62 108 13 21 18 37 12 37 -7 0 -87 -18 -178
-39 -91 -22 -177 -42 -191 -45 -14 -3 -179 -41 -367 -85 -189 -45 -349 -81
-355 -81 -7 0 -28 17 -47 38 -19 20 -86 93 -150 161 -64 68 -127 136 -141 151
-88 95 -254 274 -305 328 -33 35 -71 77 -84 93 -30 36 -41 37 -42 2z"/>
<path d="M3130 6030 c0 -5 -24 -59 -54 -119 -30 -61 -57 -119 -60 -129 -7 -19
-11 -18 249 -78 33 -8 69 -16 80 -19 11 -3 90 -21 175 -40 85 -19 169 -39 185
-44 17 -6 46 -13 65 -16 30 -5 70 -14 130 -29 39 -10 73 -15 60 -10 -8 4 -28
16 -45 28 -16 12 -45 29 -64 39 -19 10 -52 31 -75 45 -23 15 -50 32 -61 38
-18 10 -237 140 -275 164 -132 80 -300 180 -304 180 -3 0 -6 -4 -6 -10z"/>
<path d="M7493 4374 c4 -4 188 -117 410 -250 l402 -243 67 137 c36 75 65 138
63 140 -2 3 -223 55 -280 66 -11 3 -60 14 -110 26 -49 12 -97 23 -105 25 -14
3 -203 47 -350 81 -36 9 -74 18 -85 21 -11 3 -17 2 -12 -3z"/>
<path d="M5825 2973 c-16 -60 -30 -112 -31 -118 -1 -5 -9 -37 -18 -70 -9 -33
-19 -71 -22 -84 -3 -13 -9 -32 -15 -43 -5 -10 -8 -18 -5 -18 3 0 0 -15 -5 -32
-30 -98 -119 -428 -119 -440 0 -13 54 -26 175 -44 11 -2 41 -7 68 -12 26 -5
49 -7 51 -3 2 3 3 22 1 41 -2 19 -6 109 -10 200 -4 91 -8 194 -10 230 -2 36
-6 126 -10 200 -4 74 -8 172 -9 217 0 46 -3 83 -6 83 -3 0 -19 -48 -35 -107z"/>
</g>
</svg>
